# xmcd CD database file
#
# Track frame offsets:
#	150
#	17254
#	30109
#	48342
#	63729
#	75122
#	90808
#	103417
#	119149
#	134225
#
# Disc length: 1994 seconds
#
# Revision: 0
# Processed by: cddbd v1.5.2PL0 Copyright (c) Steve Scherf et al.
# Submitted via: CDex 1.70beta2
#
DISCID=7707c80a
DTITLE=Various Artist - Best of Country - Disk 3
DYEAR=2008
DGENRE=Country
TTITLE0=Crystal Gayle - Half the Way
TTITLE1=Tanya Tucker - One Love at a Time
TTITLE2=Freddy Fender - Secret Love
TTITLE3=Asleep at the Wheel - Miles and Miles of Texas
TTITLE4=Lynn Anderson - Listen to a Country Song
TTITLE5=Poco - Pickin' Up The Pieces
TTITLE6=Mickey Gilley - Headache Tomorrow
TTITLE7=Tanya Tucker - Soon
TTITLE8=Crystal Gayle - Ready for Times to Get Btter
TTITLE9=Pam Tillis - Cleopatra
EXTD=YEAR: 2008
EXTT0=
EXTT1=
EXTT2=
EXTT3=
EXTT4=
EXTT5=
EXTT6=
EXTT7=
EXTT8=
EXTT9=
PLAYORDER=
